<svg xmlns="http://www.w3.org/2000/svg" viewBox="0 0 720 560"><defs><linearGradient id="a" x1="0" y1="0" x2="1" y2="1"><stop stop-color="#eaf3ff"/><stop offset="1" stop-color="#fff0dc"/></linearGradient><linearGradient id="b" x1="0" y1="0" x2="1" y2="1"><stop stop-color="#2878ff"/><stop offset="1" stop-color="#29b8a8"/></linearGradient></defs><rect width="720" height="560" rx="42" fill="url(#a)"/><circle cx="560" cy="125" r="74" fill="#ffcf8f" opacity=".5"/><circle cx="142" cy="432" r="96" fill="#29b8a8" opacity=".18"/><rect x="235" y="62" width="250" height="438" rx="46" fill="#112820"/><rect x="254" y="92" width="212" height="378" rx="32" fill="#fffdf8"/><text x="286" y="145" font-size="22" font-weight="800" font-family="Arial" fill="#123d35">PetIeum</text><rect x="286" y="172" width="148" height="16" rx="8" fill="#dce7e3"/><rect x="286" y="210" width="120" height="120" rx="28" fill="#eef8f7"/><path d="M336 252c15-27 53-5 37 22-8 13-24 22-37 34-14-12-30-21-38-34-16-27 22-49 38-22z" fill="url(#b)"/><rect x="286" y="358" width="148" height="24" rx="12" fill="#ff9b22"/><rect x="286" y="397" width="94" height="14" rx="7" fill="#dce7e3"/><rect x="82" y="116" width="190" height="88" rx="24" fill="white" opacity=".92"/><text x="108" y="153" font-size="18" font-weight="800" font-family="Arial" fill="#123d35">AI Report</text><text x="108" y="181" font-size="14" font-family="Arial" fill="#667570">Monthly care summary</text><rect x="455" y="330" width="190" height="88" rx="24" fill="white" opacity=".92"/><text x="481" y="367" font-size="18" font-weight="800" font-family="Arial" fill="#123d35">Care Box</text><text x="481" y="395" font-size="14" font-family="Arial" fill="#667570">Curated product</text></svg>
